<svg width="36" height="36" viewBox="0 0 36 36" fill="none" xmlns="http://www.w3.org/2000/svg">
<path d="M31.5214 9.22892C30.1264 8.40964 28.5112 8 26.7247 8C25.6723 8 24.7424 8.07229 23.9592 8.21687C23.1516 8.36145 22.4174 8.60241 21.7322 8.93976L21.1937 9.20482L22.809 12.506L23.3474 12.241C24.1305 11.8795 25.1094 11.6867 26.2352 11.6867C27.8994 11.6867 29.1965 12.2169 30.1754 13.3012C31.1788 14.3855 31.6927 15.9518 31.6927 17.9036C31.6927 19.2048 31.448 20.3373 30.983 21.3012C30.518 22.241 29.8817 22.9639 29.0986 23.4699C28.3154 23.9759 27.4589 24.2169 26.4799 24.2169C24.7913 24.2169 23.4697 23.6386 22.4908 22.4819C21.4385 21.253 20.5819 19.4458 19.9456 17.0843C19.5051 15.3976 18.8443 13.8554 17.9878 12.506C17.1067 11.1325 16.0054 10.0241 14.6839 9.22892C13.3379 8.40964 11.7471 8 9.88715 8C7.85588 8 6.09381 8.45783 4.62542 9.3253C3.15704 10.2169 2.0068 11.4217 1.19918 12.9398C0.39157 14.4337 0 16.1205 0 17.9759C0 19.9518 0.39157 21.7108 1.17471 23.2048C1.95785 24.6988 3.08362 25.8795 4.47859 26.7229C5.87356 27.5422 7.51326 27.9759 9.2998 27.9759C10.3521 27.9759 11.2821 27.9036 12.0653 27.759C12.8729 27.6145 13.6071 27.3735 14.2923 27.0361L14.8307 26.7711L13.2155 23.4699L12.6526 23.7349C11.8939 24.0964 10.915 24.2892 9.76479 24.2892C8.10061 24.2892 6.82801 23.759 5.82461 22.6265C4.82121 21.5181 4.30727 19.9759 4.30727 18.0723C4.30727 16.1687 4.82121 14.6024 5.80014 13.4458C6.77906 12.3133 8.05167 11.759 9.69137 11.759C11.1353 11.759 12.31 12.2651 13.2889 13.3253C14.3168 14.4337 15.2468 16.3133 16.0544 18.9639C16.9354 21.7831 18.1591 24 19.7009 25.5663C21.2916 27.1807 23.5187 28 26.3331 28C28.2175 28 29.9062 27.5663 31.3746 26.6747C32.8185 25.8072 33.9687 24.6024 34.7763 23.0843C35.584 21.5904 36 19.8795 36 18.0241C36 16.0241 35.584 14.2651 34.8008 12.7711C33.9932 11.2771 32.8919 10.0964 31.4969 9.27711L31.5214 9.22892Z" fill="url(#paint0_linear_31_11)"/>
<defs>
<linearGradient id="paint0_linear_31_11" x1="18" y1="8" x2="18" y2="28" gradientUnits="userSpaceOnUse">
<stop stop-color="white"/>
<stop offset="1" stop-color="white" stop-opacity="0.8"/>
</linearGradient>
</defs>
</svg>
