<svg width="605" height="106" viewBox="0 0 605 106" fill="none" xmlns="http://www.w3.org/2000/svg">
<path d="M201.637 18.25C209.533 18.25 216.648 20.018 222.775 23.5547L222.798 23.5664L222.822 23.5781L222.846 23.5918C228.976 27.1142 233.885 32.1938 237.432 38.6787L237.758 39.2881C241.073 45.6159 242.75 53.0979 242.75 61.5107C242.75 69.5878 240.936 77.0139 237.339 83.5273V83.5283C233.723 90.0565 228.678 95.2848 222.304 99.0479L222.305 99.0488C215.917 102.842 208.446 104.75 200.124 104.75C188.151 104.75 178.525 101.492 171.524 94.958L170.854 94.3154C163.959 87.5038 158.497 77.7847 154.645 65.4961L154.294 64.3965C150.769 53.4951 146.753 45.5967 142.396 40.7998L141.959 40.3311C137.358 35.505 131.871 33.1759 125.151 33.1758C117.721 33.1758 111.946 35.5537 107.422 40.4463L106.988 40.9277C102.413 46.1361 100.047 53.1564 100.047 61.8203C100.047 70.4824 102.434 77.4078 107.046 82.458L107.486 82.9258C112.076 87.6812 117.923 90.0234 125.449 90.0234C130.83 90.0234 135.319 89.1716 138.835 87.5293L139.867 87.043L140.528 86.7305L140.856 87.3838L146.793 99.1729L147.136 99.8545L146.449 100.186L145.44 100.672C142.418 102.141 139.097 103.2 135.617 103.809L135.618 103.81C132.172 104.416 128.138 104.728 123.317 104.728C115.409 104.728 108.239 102.931 102.06 99.3398V99.3389C95.8852 95.7724 90.9758 90.6715 87.4746 84.1846L87.4736 84.1836C83.99 77.7083 82.25 70.0836 82.25 61.5107C82.25 53.5221 84.0415 46.1654 87.5664 39.6553C91.0936 33.1409 96.188 27.8884 102.675 24.0605C109.183 20.2204 117.021 18.2939 125.931 18.2939C134.014 18.294 141.142 20.0432 147.032 23.5527H147.033C152.868 27.0209 157.765 31.7938 161.606 37.7705L162.306 38.8799C165.751 44.4784 168.452 50.8265 170.317 57.7734L170.592 58.7539C173.456 68.8092 177.262 76.5673 181.872 81.8984H181.873C186.458 87.1783 192.705 89.8682 200.56 89.8682C205.102 89.8682 209.226 88.71 212.858 86.4229L212.859 86.4219L213.536 85.9814C216.877 83.7194 219.583 80.5693 221.594 76.5273L221.595 76.5254L221.794 76.1182C223.824 71.8798 224.861 66.8534 224.861 61.1797C224.861 52.3098 222.493 45.3464 217.89 40.4131L217.888 40.4111C213.259 35.4104 207.258 32.9766 199.482 32.9766C194.195 32.9766 189.7 33.8275 186.087 35.4746L186.084 35.4766L185.053 35.9404L184.396 36.2363L184.074 35.5928L178.16 23.8037L177.819 23.123L178.505 22.792L179.514 22.3057C182.539 20.8351 185.859 19.7987 189.332 19.1689L189.337 19.168L189.995 19.0576C193.326 18.5236 197.246 18.25 201.637 18.25Z" fill="black" stroke="black" stroke-width="1.5"/>
<path d="M37.0811 15.5C46.2884 15.5 54.0735 17.7146 60.2227 22.1084H60.2236L60.7949 22.5264C66.4443 26.7463 70.1403 32.2242 71.8096 38.7988L71.9697 39.46L71.9707 39.4629L72.2197 40.5713L72.3301 41.0625L71.8379 41.1689L57.502 44.291L57.0059 44.3994L56.9053 43.9004L56.6787 42.7695V42.7666C55.8883 38.6874 53.7418 35.3582 50.2861 32.8516L49.9551 32.6182C46.5058 30.2463 42.0851 29.0322 36.7412 29.0322C34.2578 29.0322 31.6322 29.4314 28.9307 30.2119L28.9287 30.2129C26.3976 30.9321 24.31 32.3013 22.6992 34.2363C21.143 36.1375 20.3467 38.3549 20.3467 40.8164C20.3467 42.7517 21.0033 44.5692 22.3252 46.2793C22.9477 47.0733 24.0064 47.8395 25.5488 48.5547C27.0857 49.2672 29.0691 49.9136 31.5029 50.4854L51.2061 54.7832H51.207L52.0996 54.9873C56.5174 56.0392 60.405 57.6143 63.6416 59.7207L63.6465 59.7158C66.9747 61.8746 69.4345 64.4536 70.9805 67.4023L71.2773 67.9971L71.5469 68.584C72.8482 71.5273 73.5 74.609 73.5 77.7129C73.5 86.0298 70.238 92.697 63.8096 97.4785L63.8086 97.4795C57.5146 102.154 48.77 104.5 38.8926 104.5C29.3217 104.5 21.0876 102.446 14.3789 98.3535L13.7344 97.9512C6.76996 93.5054 2.70045 87.0856 1.63965 78.9082L1.64062 78.9072L1.50488 77.8926L1.44336 77.4385L1.89062 77.3379L16.7246 74.0127L17.2715 73.8906L17.3311 74.4473L17.4668 75.7119L17.5215 76.1533C18.1336 80.6708 20.325 84.1102 24.2871 86.7061H24.2881L24.6816 86.959C28.7753 89.5309 33.8826 90.832 39.8662 90.832C45.3708 90.832 49.8112 89.6466 53.0752 87.3271L53.0762 87.3262L53.3701 87.1143C56.3519 84.9047 57.7793 82.1087 57.7793 78.5498C57.7792 75.9851 56.9547 74.0685 55.2812 72.6016L54.9346 72.3145C52.8408 70.6587 49.7263 69.3242 45.6426 68.3828V68.3818L26.9473 64.2441V64.2451C19.8645 62.7845 14.2869 60.1276 10.417 56.3779L10.0508 56.0117C6.34021 52.2135 4.4668 47.4338 4.4668 41.7891C4.46683 33.9018 7.56947 27.4683 13.623 22.6445L14.1885 22.2061C20.0975 17.7478 28.1622 15.5 37.0811 15.5Z" fill="black" stroke="black"/>
<path d="M310.5 19.9961L310.498 20.0166L309.358 34.1602L309.32 34.6367L308.843 34.6201L303.037 34.416C299.48 34.4176 295.783 35.0419 292.056 36.252L292.057 36.2529C288.453 37.4292 285.168 39.5175 282.314 42.417L282.313 42.418C279.444 45.3109 277.02 49.1993 275.14 53.9863V53.9873C273.269 58.7266 272.314 64.5408 272.314 71.3076V104.5H256.5V19.3398H272.314V35.3809C275.405 30.9862 279.072 27.3264 283.285 24.4443L283.828 24.0811C289.466 20.3796 295.946 18.5 303.073 18.5C305.446 18.5 307.528 18.7293 309.241 19.2227L310.135 19.4717L310.5 19.5742V19.9961Z" fill="black" stroke="black"/>
<path d="M356.593 29.8564C353.683 29.8564 350.097 30.5417 345.962 31.9346L345.959 31.9355C341.935 33.2616 338.205 35.8092 334.839 39.5801L334.838 39.5811C331.912 42.8299 329.944 46.8186 328.938 51.4209H382.146C381.393 47.5276 379.933 43.943 377.802 40.7227L377.8 40.7207C375.368 37.0162 372.207 34.2734 368.404 32.5264V32.5273C364.504 30.7444 360.545 29.8565 356.593 29.8564ZM398.5 64.123H328.22C328.515 66.5419 329.086 69.026 329.944 71.5166L330.134 72.0537V72.0557L330.354 72.6514C331.495 75.619 333.183 78.3729 335.387 80.877L335.833 81.3672C337.953 83.6352 340.552 85.5975 343.574 87.1924L344.228 87.5283L344.23 87.5303L344.883 87.8477C348.167 89.3872 351.805 90.1689 355.728 90.1689C361.635 90.1689 366.92 88.8077 371.479 86.1631C375.972 83.5313 379.597 79.2955 382.226 73.5537L382.227 73.5527L382.613 72.7148L382.784 72.3447L383.182 72.4385L396.68 75.6064L397.236 75.7373L397.033 76.2705L396.578 77.4707L396.577 77.4727C393.243 86.1377 387.967 92.9028 380.882 97.5381L380.881 97.5371C373.822 102.17 365.347 104.5 355.75 104.5C350.244 104.5 344.785 103.423 339.561 101.317H339.56C334.357 99.2115 329.637 96.1666 325.562 92.2988L325.562 92.2979C321.479 88.399 318.254 83.6096 315.953 78.0732L315.952 78.0723C313.672 72.5541 312.5 66.5139 312.5 60.1602C312.5 55.3756 313.283 50.3699 314.82 45.2812L314.97 44.7988C316.552 39.8148 319.407 34.8743 323.456 30.1406V30.1396L323.854 29.6816C328.001 24.9812 333.075 21.4228 338.925 19.0918L340.033 18.6621C351.12 14.5093 362.066 14.5653 371.666 18.1348L372.622 18.5029L372.623 18.5039L373.555 18.8926C378.18 20.8901 382.334 23.6906 385.9 27.2363L386.76 28.0908H386.686C390.104 31.7029 392.862 35.9898 394.865 40.8428L395.264 41.8311C397.2 46.8001 398.285 52.1772 398.5 57.8096V64.123Z" fill="black" stroke="black"/>
<path d="M456.847 17.5C460.547 17.5 464.446 18.0973 468.383 19.2412H468.384C472.173 20.3236 475.711 22.2165 478.94 24.8359L479.583 25.3691L479.584 25.3711L480.213 25.9277C483.121 28.5803 485.607 31.9786 487.647 36.0518L488.077 36.9346L488.078 36.9355L488.287 37.3896C490.42 42.111 491.5 47.695 491.5 53.9639V104.5H475.544V56.2754C475.544 49.2767 473.666 43.585 469.991 39.2783L469.63 38.8652C465.698 34.4931 460.707 32.3692 454.339 32.3691C446.048 32.3691 439.692 35.0193 434.807 40.4521H434.806C429.944 45.8383 427.456 53.5893 427.456 63.5723V104.5H411.5V19.4941H427.456V29.9248C430.218 26.7953 433.458 24.1948 437.163 22.1836L437.992 21.7471C443.498 18.919 449.848 17.5 456.847 17.5Z" fill="black" stroke="black"/>
<path d="M542.951 15.5C553.357 15.5 561.917 18.209 568.325 23.627L568.375 23.5781L568.726 23.8838C575.234 29.5421 578.5 37.5911 578.5 47.71V102.327H562.949V92.7002C559.99 95.7556 556.471 98.3293 552.461 100.35H552.46C546.98 103.105 540.728 104.5 533.872 104.5C524.68 104.5 517.066 102.053 511.304 97.1621L510.765 96.6973C505.286 91.8493 502.5 85.695 502.5 77.8809C502.5 69.8133 505.606 63.1499 511.742 58.1631C517.808 53.2235 526.334 50.7637 537.027 50.7637H562.949V48.5928C562.949 45.631 562.329 42.6419 561.083 39.7129L560.847 39.1914C559.612 36.6076 557.567 34.416 554.743 32.6768L554.742 32.6758C551.727 30.8103 548.008 29.8535 543.655 29.8535C537.81 29.8535 532.924 31.2598 529.145 33.9482C525.374 36.6307 523.151 40.2029 522.333 44.8984V44.8994L522.129 46.0547L522.038 46.5674L521.529 46.4551L507.184 43.3096L506.717 43.207L506.798 42.7373L506.979 41.6729L506.979 41.668L507.12 40.9424C508.647 33.4871 512.69 27.3318 519.165 22.6787L519.791 22.2373C526.3 17.7538 534.089 15.5001 542.951 15.5ZM536.8 63.9629C530.739 63.9629 526.005 65.3293 522.694 67.9307L522.139 68.3662C519.248 70.8625 517.847 73.9091 517.847 77.7227C517.847 79.4341 518.362 81.3493 519.406 83.4531L519.601 83.8203C520.562 85.5216 522.261 87.0448 524.705 88.3398L525.24 88.6133L525.241 88.6143L525.78 88.8711C531.408 91.4512 538.95 91.6457 547.521 88.457L547.904 88.3105C551.848 86.7561 555.365 83.9975 558.331 80.1338L558.609 79.7627C561.445 75.9093 562.882 71.5041 562.882 66.6543V63.9629H536.8Z" fill="black" stroke="black"/>
<path d="M585.738 0L578 22H582.911L584.566 16.665H592.434L594.089 22H599L591.244 0H585.756H585.738ZM585.608 13.2183L588.342 4.4H588.621L591.337 13.2183H585.608Z" fill="black"/>
<path d="M605 0H600V22H605V0Z" fill="black"/>
</svg>
