<svg width="129" height="128" viewBox="0 0 129 128" fill="none" xmlns="http://www.w3.org/2000/svg">
<g clip-path="url(#clip0_2_4068)">
<circle cx="64.5352" cy="64.0046" r="64" fill="#46CB19"/>
<path d="M32.5352 64.0046C32.5352 52.9589 41.4895 44.0046 52.5352 44.0046H76.5352C87.5809 44.0046 96.5352 52.9589 96.5352 64.0046C96.5352 75.0503 87.5809 84.0046 76.5352 84.0046H52.5352C41.4895 84.0046 32.5352 75.0503 32.5352 64.0046Z" fill="white"/>
<path d="M62.5318 63.8214C62.5596 55.5505 69.2864 48.9005 77.6004 48.9203C85.7752 48.9442 92.5418 55.7531 92.502 63.9247C92.4622 72.2512 85.7275 78.8854 77.3459 78.8496C69.1313 78.8139 62.5079 72.0923 62.5318 63.8175V63.8214Z" fill="#46CB19"/>
</g>
<defs>
<clipPath id="clip0_2_4068">
<rect width="128" height="128.002" fill="white" transform="translate(0.535156 0.00463867)"/>
</clipPath>
</defs>
</svg>
