<?xml version="1.0" encoding="UTF-8"?>
<svg id="logosandtypes_com" data-name="logosandtypes com" xmlns="http://www.w3.org/2000/svg" viewBox="0 0 150 150">
  <defs>
    <style>
      .cls-1 {
        fill: #525df9;
      }

      .cls-2 {
        fill: none;
      }
    </style>
  </defs>
  <path class="cls-2" d="M0,0H150V150H0V0Z"/>
  <g>
    <path class="cls-1" d="M120.95,86.66c-4.37-.4-8.21,2.8-8.61,7.15-1.71,18.55-17.7,33.08-36.4,33.08-20.22,0-36.66-16.36-36.66-36.46v-29.58c0-20.11,16.45-36.46,36.66-36.46,18.75,0,34.78,14.53,36.5,33.08,.4,4.35,4.24,7.53,8.61,7.15,4.35-.4,7.55-4.26,7.15-8.61-2.47-26.61-25.42-47.45-52.26-47.45-28.95,0-52.5,23.46-52.5,52.29v29.58c0,28.83,23.55,52.29,52.49,52.29,27.24,0,49.66-20.4,52.16-47.45,.4-4.35-2.8-8.21-7.15-8.61Z"/>
    <path class="cls-1" d="M76.02,36.86c-10.84,0-20.38,7.34-23.19,17.83-1.13,4.22,1.38,8.56,5.6,9.69,.69,.18,1.37,.27,2.05,.27,3.5,0,6.69-2.33,7.64-5.87,.96-3.59,4.21-6.1,7.9-6.1s6.98,2.49,7.91,6.05c1.11,4.23,5.44,6.75,9.66,5.65,4.23-1.11,6.76-5.43,5.65-9.66-2.75-10.52-12.3-17.87-23.22-17.87Z"/>
  </g>
</svg>