<svg id="Layer_1" data-name="Layer 1" xmlns="http://www.w3.org/2000/svg" xmlns:xlink="http://www.w3.org/1999/xlink" viewBox="0 0 486.09 638"><defs><style>.cls-1{fill:#673ab7;}.cls-2{fill:#f1f1f1;}.cls-3{fill:url(#linear-gradient);}.cls-4{fill:#b39ddb;}.cls-5{fill:#fff;}.cls-5,.cls-6{fill-opacity:0.2;}.cls-6,.cls-7{fill:#311b92;}.cls-7{fill-opacity:0.1;}.cls-8{fill:url(#radial-gradient);}</style><linearGradient id="linear-gradient" x1="571.5" y1="-1085.47" x2="571.5" y2="-1085.24" gradientTransform="translate(-380344.76 711084.24) scale(666.67 654.76)" gradientUnits="userSpaceOnUse"><stop offset="0" stop-color="#311b92" stop-opacity="0.2"/><stop offset="1" stop-color="#311b92" stop-opacity="0.02"/></linearGradient><radialGradient id="radial-gradient" cx="573.51" cy="-1083.6" r="3.29" gradientTransform="translate(-1092123.94 2064176.25) scale(1904.77 1904.75)" gradientUnits="userSpaceOnUse"><stop offset="0" stop-color="#fff" stop-opacity="0.1"/><stop offset="1" stop-color="#fff" stop-opacity="0"/></radialGradient></defs><title>Google Forms Logo Vector</title><path class="cls-1" d="M560.76,181H302.53C278.21,181,257,202.26,257,226.58V773.42c0,24.3,21.25,45.58,45.57,45.58H697.47c24.29,0,45.57-21.26,45.57-45.58V363.28L636.71,287.34Z" transform="translate(-256.96 -181)"/><path class="cls-2" d="M439.24,651.88H621.52V621.51H439.24Zm0-197.47v30.37H621.52V454.41Zm-27.36,15.21c0,12.15-9.11,24.29-24.29,24.29s-24.3-9.11-24.3-24.29,9.12-24.29,24.3-24.29S411.88,457.45,411.88,469.62Zm0,85c0,12.15-9.11,24.3-24.29,24.3s-24.3-9.11-24.3-24.3,9.12-24.29,24.3-24.29S411.88,542.53,411.88,554.67Zm0,82c0,12.15-9.11,24.3-24.29,24.3s-24.3-9.11-24.3-24.3,9.12-24.29,24.3-24.29S411.88,624.55,411.88,636.69Zm27.36-60.76H621.52V545.54H439.24v30.39Z" transform="translate(-256.96 -181)"/><path class="cls-3" d="M572.91,351.14,743,518.23v-155Z" transform="translate(-256.96 -181)"/><path class="cls-4" d="M560.76,181V317.71c0,24.29,21.26,45.57,45.58,45.57H743Z" transform="translate(-256.96 -181)"/><path class="cls-5" d="M302.53,181C278.21,181,257,202.26,257,226.58v3c0-24.32,21.25-45.57,45.57-45.57H560.76v-3Z" transform="translate(-256.96 -181)"/><path class="cls-6" d="M697.47,815.94H302.53c-24.32,0-45.57-21.26-45.57-45.58v3c0,24.29,21.25,45.57,45.57,45.57H697.47C721.76,819,743,797.72,743,773.4v-3C743,794.68,721.76,815.94,697.47,815.94Z" transform="translate(-256.96 -181)"/><path class="cls-7" d="M606.31,363.28c-24.29,0-45.57-21.26-45.57-45.57v3c0,24.3,21.25,45.58,45.57,45.58H743v-3Z" transform="translate(-256.96 -181)"/><path class="cls-8" d="M560.76,181H302.53C278.21,181,257,202.26,257,226.58V773.42c0,24.3,21.25,45.58,45.57,45.58H697.47c24.29,0,45.57-21.26,45.57-45.58V363.28Z" transform="translate(-256.96 -181)"/></svg>