<?xml version="1.0" encoding="UTF-8"?>
<svg id="Layer_1" data-name="Layer 1" xmlns="http://www.w3.org/2000/svg" version="1.1" viewBox="0 0 800 800">
  <defs>
    <style>
      .cls-1 {
        fill: #fff;
        stroke-width: 0px;
      }
    </style>
  </defs>
  <path class="cls-1" d="M379,1.5c102.8-8.5,176.6,18.8,256,98.2,85.8,85.7,142.8,196.8,158.1,315.1,17.1,131.6-6.4,229.7-78.8,301.6-69.2,68.7-170.4,91.4-305.5,80.1h0l-5.6-.5c-115.1-10.6-196.4-48.3-275.3-128.2C43.7,582.5-.7,485.7,1.6,384c1.2-49.8,15.3-92.2,42.4-133.8,17.8-27.3,35.9-48.6,73.8-87.6h0l12.6-12.9,13.9-14.1C234.2,45.4,293.3,8.5,379,1.5ZM628.9,105.8C551.2,28.2,479.9,1.8,379.7,10.1c-84.5,7-142.5,43.9-233.3,135.8h0l-6.6,6.7c-44.2,45-65,68-83.2,94.6h0l-2.7,3.9-2.6,3.9c-26.3,40.3-39.9,81.2-41,129.3-2.3,99.1,41.1,193.8,123.7,277.5,78.7,79.7,159.5,116.4,275.5,126.1h0l5.8.5c129.9,10,226.8-12.5,293-78.1,70.3-69.7,93.1-165.3,76.4-294.4-15.1-116.4-71.2-225.7-155.7-310.1ZM521.4,290.7v42.2h-89.6v241.9h-44.7v-241.9h-89.6v-42.2h223.9Z"/>
</svg>